<svg width="20" height="16" viewBox="0 0 20 16" fill="none" xmlns="http://www.w3.org/2000/svg">
<g id="SVG" clip-path="url(#clip0_218_11967)">
<path id="Vector" d="M19.5078 8.57987L3.67261 8.59788C3.41579 8.59817 3.20785 8.80642 3.20794 9.06316C3.20802 9.29235 3.37571 9.48493 3.59858 9.53874C4.49984 9.75636 5.32245 10.2296 5.96529 10.9054L8.94764 13.8872L7.70968 15.125L0.281923 7.69838L7.69093 0.290528L8.92889 1.52838L6.04029 4.41652C5.39372 5.13612 4.54089 5.63305 3.60356 5.84336C3.3686 5.89605 3.18928 6.09685 3.18928 6.33754C3.18928 6.60231 3.40388 6.81697 3.66878 6.81697L19.5076 6.8168L19.5078 8.57987Z" fill="#F3EFEF"/>
</g>
<defs>
<clipPath id="clip0_218_11967">
<rect width="19.55" height="16" fill="white" transform="matrix(-1 0 0 -1 19.7812 16)"/>
</clipPath>
</defs>
</svg>
