<svg width="55" height="48" viewBox="0 0 55 48" fill="none" xmlns="http://www.w3.org/2000/svg">
<g id="Silver">
<path id="Vector" d="M18.901 0.0930138C18.5957 0.213531 18.27 0.615261 18.1987 0.94669C18.158 1.14756 18.2293 1.48903 18.3921 1.95102C18.6465 2.63396 19.0129 3.71863 19.8577 6.16919C20.0816 6.83204 20.3157 7.46476 20.3666 7.57524C20.4276 7.68571 20.6312 8.24814 20.8245 8.83065C21.6896 11.3816 22.0051 12.3056 22.0967 12.4964C22.1578 12.6069 22.3614 13.1693 22.5547 13.7518C22.7481 14.3344 23.1857 15.5998 23.5216 16.564C23.8676 17.5281 24.6513 19.8381 25.2721 21.686C25.893 23.534 26.4629 25.1811 26.5443 25.3518C26.6156 25.5125 27.2161 27.2299 27.8674 29.1682C30.0658 35.6863 31.7146 40.487 31.8672 40.8184C31.9181 40.9289 32.0402 41.2402 32.1318 41.5215C32.6102 42.8873 32.7018 43.1384 32.7832 43.3292C32.8341 43.4397 33.0478 44.0222 33.2616 44.6349C33.4651 45.2375 33.6687 45.7798 33.7094 45.8401C33.7501 45.8903 33.8315 46.1413 33.9027 46.3924C33.974 46.6435 34.1266 47.0352 34.2386 47.2662C34.6152 48.0496 33.8926 47.9994 45.0574 47.9994H55.0009L54.95 45.0065C54.8991 41.6721 54.8482 41.3808 54.1663 40.0049C53.4132 38.4783 51.8356 37.1325 50.1665 36.5802C49.3421 36.309 49.2912 36.309 45.9734 36.2487L42.6148 36.1985L35.9281 18.5324C32.254 8.8206 29.2007 0.755867 29.1396 0.625305C29.0786 0.504787 28.8852 0.303921 28.702 0.193447C28.3763 0.00262451 28.1931 -0.00741959 23.7353 0.00262451C21.1909 0.00262451 19.0129 0.0427971 18.901 0.0930138Z" fill="#96C196"/>
<path id="Vector_2" d="M12.2538 15.027C12.0706 15.1174 11.8772 15.2681 11.8264 15.3584C11.7755 15.4589 9.08858 22.5092 5.86229 31.036C1.62841 42.2242 0 46.6532 0 46.9344C0.0101776 47.2357 0.0814207 47.4065 0.325683 47.6375L0.63101 47.9488L5.87247 47.9789C11.6228 48.0091 11.6635 48.0091 11.9688 47.4165C12.4472 46.5026 18.2382 29.6902 18.2382 29.2081C18.2382 28.9269 13.9535 15.9209 13.699 15.4388C13.5565 15.1676 13.0273 14.8563 12.722 14.8563C12.6507 14.8563 12.437 14.9366 12.2538 15.027Z" fill="#96C196"/>
</g>
</svg>
