<svg width="20" height="16" viewBox="0 0 20 16" fill="none" xmlns="http://www.w3.org/2000/svg">
<g id="SVG" clip-path="url(#clip0_218_11970)">
<path id="Vector" d="M0.492188 7.42013L16.3274 7.40212C16.5842 7.40183 16.7922 7.19358 16.7921 6.93684C16.792 6.70765 16.6243 6.51507 16.4014 6.46126C15.5002 6.24364 14.6776 5.77043 14.0347 5.09462L11.0524 2.11275L12.2903 0.875L19.7181 8.30162L12.3091 15.7095L11.0711 14.4716L13.9597 11.5835C14.6063 10.8639 15.4591 10.3669 16.3964 10.1566C16.6314 10.104 16.8107 9.90315 16.8107 9.66246C16.8107 9.39769 16.5961 9.18303 16.3312 9.18303L0.492406 9.1832L0.492188 7.42013Z" fill="#F3EFEF"/>
</g>
<defs>
<clipPath id="clip0_218_11970">
<rect width="19.55" height="16" fill="white" transform="translate(0.21875)"/>
</clipPath>
</defs>
</svg>
